PathFileType	4	(X/Y/Z)	/Users/niels/Desktop/University/Third Semester/Perception and Action/Exam/Gymnastics Motion Tracking/Code for Gym Tracking/Analyzed Data/Webcam_Backflip/id2002_1_trajectory_Sports2D/id2002_1_trajectory_Sports2D_px_person00.trc
DataRate	CameraRate	NumFrames	NumMarkers	Units	OrigDataRate	OrigDataStartFrame	OrigNumFrames
29.795918367346935	29.795918367346935	8	22	m	29.795918367346935	73	147
Frame#	Time	Hip			RHip			RKnee			RAnkle			RBigToe			RSmallToe			RHeel			LHip			LKnee			LAnkle			LBigToe			LSmallToe			LHeel			Neck			Head			Nose			RShoulder			RElbow			RWrist			LShoulder			LElbow			LWrist		
		X1	Y1	Z1	X2	Y2	Z2	X3	Y3	Z3	X4	Y4	Z4	X5	Y5	Z5	X6	Y6	Z6	X7	Y7	Z7	X8	Y8	Z8	X9	Y9	Z9	X10	Y10	Z10	X11	Y11	Z11	X12	Y12	Z12	X13	Y13	Z13	X14	Y14	Z14	X15	Y15	Z15	X16	Y16	Z16	X17	Y17	Z17	X18	Y18	Z18	X19	Y19	Z19	X20	Y20	Z20	X21	Y21	Z21	X22	Y22	Z22
73	2.45	1.0550587384417043	-0.6155444541707004	0.0	1.0502133146225447	-0.6142672154663598	0.0	1.0626838229740538	-0.9997140732740154	0.0	1.0447819631963406	-1.0661522878857737	0.0	1.5366687934769863	-1.0905824116892326	0.0	1.5342678241597707	-1.0655261723735987	0.0	1.2278259327256902	-1.0760325499374206	0.0	1.0646603881815218	-0.6212784349651663	0.0	1.058261585481647	-0.9843261517867613	0.0	1.0435481498147103	-1.0619580465520353	0.0	1.5178310546875	-1.002380859375	0.0	1.5208022456228556	-0.9637553712178305	0.0	0.9641840441347254	-1.0764087754735963	0.0	1.0398731751410506	-0.13899132532150427	0.0	1.1061461203980198	-0.01579152460155656	0.0	1.122768536471024	-0.030091184604203933	0.0	1.0176062442296483	-0.15902109239352108	0.0	0.9853424370238755	-0.3739624554933705	0.0	1.1289799075270959	-0.5822525897535785	0.0	1.0597133132593408	-0.1804488430454121	0.0	1.0402265225217278	-0.3993972803279708	0.0	1.112831277484909	-0.5788579363734089	0.0
74	2.4835616438356167	1.0602538129059618	-0.6149959666708481	0.0	1.0546625112957988	-0.6141948165222851	0.0	1.0678007900962847	-0.9988834482562514	0.0	1.0491179515172728	-1.065767114067832	0.0	1.5366695639669719	-1.0905838062618456	0.0	1.5342690223260447	-1.0655280867128638	0.0	1.2278481043532854	-1.076039563781012	0.0	1.0713272322854805	-0.6207088486694623	0.0	1.0643512607381065	-0.9834349028797192	0.0	1.0509597016613514	-1.0618374086260114	0.0	1.5178310546875	-1.002380859375	0.0	1.5208022443713847	-0.9637553715475924	0.0	0.9641774448417857	-1.0764090665767738	0.0	1.036264724587376	-0.140005732001239	0.0	1.0936066593592773	-0.014975300645535681	0.0	1.1148373268447467	-0.0318361836588413	0.0	1.0132214348455182	-0.1623563132495276	0.0	0.986033023037377	-0.37863663066846437	0.0	1.1294508017044056	-0.5858178278660846	0.0	1.0579056110032459	-0.1832807752800124	0.0	1.0444114359970393	-0.40149489662134	0.0	1.1167520320988236	-0.5800235987137202	0.0
75	2.517123287671233	1.0644994737237379	-0.6141356470906312	0.0	1.058427238720466	-0.6138980147897246	0.0	1.072035368064003	-0.9979897709041979	0.0	1.0524808746475773	-1.0651867538242732	0.0	1.53666943029755	-1.0905821944802714	0.0	1.5342692255063775	-1.065529366104652	0.0	1.2278867605736021	-1.0760433010914274	0.0	1.0776630167019494	-0.6197321341189833	0.0	1.0703513112300314	-0.982302483844823	0.0	1.0596587330335614	-1.0612166062775317	0.0	1.5178310546875	-1.002380859375	0.0	1.5208022424655288	-0.9637553720497843	0.0	0.9641851054847645	-1.07640872865413	0.0	1.0325437487341123	-0.1408719969213463	0.0	1.082414147885338	-0.015102728421311287	0.0	1.1072026332626266	-0.03413673460766963	0.0	1.009113321882108	-0.1657366050833511	0.0	0.9872493152663905	-0.38341121374501996	0.0	1.1300676826361893	-0.5895471910561765	0.0	1.0551558703978348	-0.18548337845587545	0.0	1.0472604110252655	-0.40341382277305143	0.0	1.1204448068702157	-0.5811421249306313	0.0
76	2.5506849315068494	1.0682308337922326	-0.6133961637387697	0.0	1.0617692476856084	-0.6137775853765525	0.0	1.0752003467340967	-0.99691499320056	0.0	1.054873813246848	-1.0646379857734334	0.0	1.536667193698824	-1.0905743534071224	0.0	1.5342668855563393	-1.0655282711006646	0.0	1.2279400832132887	-1.0760366582662038	0.0	1.0841438565346653	-0.618715346938494	0.0	1.0764437601032086	-0.9810916255037906	0.0	1.0691005683476744	-1.0604571137755765	0.0	1.5178310546875	-1.002380859375	0.0	1.5208022402201762	-0.9637553726414335	0.0	0.9642223031620129	-1.076407087813562	0.0	1.02882723643977	-0.14174396679394344	0.0	1.0726679683727638	-0.015916404563372205	0.0	1.1000552720458359	-0.036725802026386194	0.0	1.0053811397761558	-0.16905734693452662	0.0	0.9885855743951729	-0.388060914700264	0.0	1.1306906477966818	-0.592862183843036	0.0	1.0521548282976911	-0.18737371715625956	0.0	1.049415791171441	-0.4051437693938422	0.0	1.124604902850475	-0.5812762206354688	0.0
77	2.584246575342466	1.0716676883374416	-0.6129675635087701	0.0	1.0646388962671625	-0.6138841620420934	0.0	1.0772945728432788	-0.9955983827221289	0.0	1.0565063413787537	-1.0644137955843638	0.0	1.5366613247309584	-1.090556547245063	0.0	1.5342599144166527	-1.0655221399228596	0.0	1.2279940813464791	-1.0760092118383036	0.0	1.0908529047625222	-0.6177372298545	0.0	1.0827274155278965	-0.9799980952590606	0.0	1.0784291755039899	-1.059948216846767	0.0	1.5178310546875	-1.002380859375	0.0	1.5208022386200413	-0.9637553730630682	0.0	0.9643067398111997	-1.076403363199484	0.0	1.0252739710812795	-0.1427712494919814	0.0	1.0643054301224772	-0.017054018673170506	0.0	1.0935416315919297	-0.0393288486425236	0.0	1.001919302584793	-0.17220608318563765	0.0	0.9895452142748733	-0.39224209906792656	0.0	1.1311462405818973	-0.5952134685262024	0.0	1.049609216202014	-0.18933449224122892	0.0	1.0516653901103326	-0.4066545886082829	0.0	1.1300440448637057	-0.579224127270888	0.0
78	2.617808219178082	1.07464002193731	-0.6128042023448854	0.0	1.0666210580080544	-0.6139728754780578	0.0	1.07888354680428	-0.9939543140149065	0.0	1.0577100905707173	-1.0648233039709907	0.0	1.5366504926093412	-1.0905262396518567	0.0	1.5342462809260602	-1.0655078163041318	0.0	1.2280144208393264	-1.075949309195884	0.0	1.097298990454444	-0.6166547123620865	0.0	1.0892761937189925	-0.9789357232861486	0.0	1.0865487367178557	-1.0600561857538424	0.0	1.5178310546875	-1.002380859375	0.0	1.5208022396288299	-0.963755372797253	0.0	0.9644504208766843	-1.0763970252358452	0.0	1.0219787226262493	-0.14403834055175344	0.0	1.0571609127291337	-0.018109144305051693	0.0	1.0876392225597356	-0.04178353945486237	0.0	0.9984499317020002	-0.1750890896247833	0.0	0.9896658819046865	-0.39560114501010063	0.0	1.1312411202607762	-0.5962442134042956	0.0	1.0478787386970263	-0.19164722447289612	0.0	1.0546171773110689	-0.40794516227733135	0.0	1.1370497852968617	-0.5738366573965537	0.0
79	2.6513698630136986	1.076696766442936	-0.6128760551018293	0.0	1.0672523575458457	-0.6138228015481038	0.0	1.0813511700613003	-0.9918285035961039	0.0	1.058915140042814	-1.0661250656867576	0.0	1.5366347176317878	-1.090485457769878	0.0	1.5342254193928637	-1.0654830091348433	0.0	1.227939928668465	-1.0758499367013787	0.0	1.102498901981005	-0.6154308446788244	0.0	1.0958983129418707	-0.9775690529220836	0.0	1.092028675845137	-1.0611606929990545	0.0	1.5178310546875	-1.002380859375	0.0	1.5208022462982822	-0.963755371039856	0.0	0.9646437050421367	-1.0763884992138413	0.0	1.0189267595668607	-0.14559473865007486	0.0	1.0510677105298236	-0.018740226270705474	0.0	1.082239342860137	-0.04410120555672622	0.0	0.9947255255700499	-0.17773859127519887	0.0	0.9885670090371664	-0.39790147791461045	0.0	1.1308201108681284	-0.5958678787850771	0.0	1.0468460673847193	-0.19445740410260737	0.0	1.0582814406343528	-0.40917580322105357	0.0	1.1448991499265502	-0.5645062182686038	0.0
80	2.684931506849315	1.077275972265251	-0.6132333798199309	0.0	1.0663670580431193	-0.6134190193753568	0.0	1.0869780597722483	-0.9889287281457053	0.0	1.0609093846696895	-1.0684072457888754	0.0	1.5366172797871	-1.0904459586428699	0.0	1.5342006839384679	-1.06544902067124	0.0	1.2276844001282903	-1.0757199028503956	0.0	1.1050168889427763	-0.6142461654206554	0.0	1.1016818469640886	-0.9756214986047591	0.0	1.093090492304311	-1.0636064933147789	0.0	1.5178310546875	-1.002380859375	0.0	1.5208022623211497	-0.9637553668178392	0.0	0.9648308142258892	-1.076380245578729	0.0	1.016012778482132	-0.14746334036276473	0.0	1.0459021591848618	-0.018808849211240927	0.0	1.0772860630343866	-0.046356164635999196	0.0	0.9906571311056972	-0.18032772450481105	0.0	0.9859786241792311	-0.3991232963683654	0.0	1.1298376924616371	-0.5942142773993788	0.0	1.045987885199456	-0.1977640274703379	0.0	1.0616528338069733	-0.41066273666164466	0.0	1.1519505087540056	-0.5515946821228994	0.0
